<?xml version="1.0" encoding="UTF-8"?>
<svg id="logo" xmlns="http://www.w3.org/2000/svg" viewBox="0 0 230 70">
  <defs>
    <style>
      .cls-1 {
        fill: #002235;
      }
    </style>
  </defs>
  <g>
    <path class="cls-1" d="M55.75,32.61l-6.87-6.87-2.01-2.01-3.63-3.63-2.01-2.01-2.54-2.54c-.2-.2-.41-.38-.63-.54-.07-.05-.15-.11-.22-.16-.08-.05-.15-.1-.23-.14-.17-.1-.34-.19-.51-.27-.07-.03-.14-.06-.21-.09-.08-.03-.17-.06-.25-.09-.08-.03-.17-.06-.25-.08-.51-.15-1.03-.22-1.55-.22s-1.05.07-1.55.22c-.08.02-.17.05-.25.08-.08.03-.17.06-.25.09-.07.03-.14.06-.21.09-.17.08-.35.17-.51.27-.08.05-.15.09-.23.14-.08.05-.15.1-.22.16-.22.16-.43.34-.63.54l-17.06,17.06c-2.13,2.13-2.13,5.59,0,7.72l17.06,17.06c.2.2.41.38.63.54.07.05.15.11.22.16.08.05.15.1.23.14.17.1.34.19.51.27.07.03.14.06.21.09.08.03.17.06.25.09.08.03.17.06.25.08.51.15,1.03.22,1.55.22s1.05-.07,1.55-.22c.08-.02.17-.05.25-.08.08-.03.17-.06.25-.09.07-.03.14-.06.21-.09.17-.08.35-.17.51-.27.08-.05.15-.09.23-.14.08-.05.15-.1.22-.16.22-.16.43-.34.63-.54l2.54-2.54-3.63-3.63-1.58,1.58s-.08.08-.13.12c-.02.01-.03.03-.05.04-.03.02-.06.04-.08.06-.02.02-.05.03-.07.04-.01,0-.02.01-.04.02-.04.02-.07.04-.11.06-.22.1-.47.16-.71.16s-.49-.05-.71-.16c-.04-.02-.07-.04-.11-.06-.01,0-.02-.01-.04-.02-.02-.01-.05-.03-.07-.04-.03-.02-.06-.04-.08-.06-.02-.01-.04-.03-.05-.04-.04-.04-.09-.07-.13-.12l-15.14-15.14c-.66-.66-.66-1.73,0-2.38l15.14-15.14s.08-.08.13-.12c.02-.01.03-.03.05-.04.03-.02.06-.04.08-.06.02-.02.05-.03.07-.04.01,0,.02-.01.04-.02.04-.02.07-.04.11-.06.22-.1.47-.16.71-.16s.49.05.71.16c.04.02.07.04.11.06.01,0,.02.01.04.02.02.01.05.03.07.04.03.02.06.04.08.06.02.01.04.03.05.04.04.04.09.07.13.12l1.58,1.58,2.01,2.01,3.63,3.63,2.01,2.01,5.91,5.91c.66.66.66,1.73,0,2.38l-5.91,5.91-2.01,2.01-3.63,3.63,3.63,3.63,3.63-3.63,2.01-2.01,6.87-6.87c2.13-2.13,2.13-5.59,0-7.72Z"/>
    <path class="cls-1" d="M72.58,32.61l-17.06-17.06c-.2-.2-.41-.38-.63-.54-.07-.05-.15-.11-.22-.16-.24-.16-.49-.29-.74-.41-.07-.03-.14-.06-.21-.09-.08-.03-.17-.06-.25-.09-.08-.03-.17-.06-.25-.08-.51-.15-1.03-.22-1.55-.22s-1.05.07-1.55.22c-.08.02-.17.05-.25.08-.08.03-.17.06-.25.09-.07.03-.14.06-.21.09-.17.08-.35.17-.51.27-.08.05-.15.09-.23.14-.08.05-.15.1-.22.16-.22.16-.43.34-.63.54l-2.54,2.54-2.01,2.01-3.63,3.63,3.63,3.63,3.63-3.63,3.59-3.59s.08-.08.13-.12c.02-.02.04-.04.07-.05s.05-.03.07-.05c.02-.02.05-.03.07-.04.01,0,.02-.01.04-.02.04-.02.07-.04.11-.06.22-.1.47-.16.71-.16.3,0,.6.08.87.24.01,0,.03.02.04.03.03.02.07.04.1.07.02.01.04.03.05.04.04.04.09.07.13.12l15.14,15.14c.66.66.66,1.73,0,2.38l-15.14,15.14s-.08.08-.13.12c-.02.01-.03.03-.05.04-.03.02-.06.05-.1.07-.01,0-.03.02-.04.03-.27.16-.57.24-.87.24-.24,0-.49-.05-.71-.16-.04-.02-.07-.04-.11-.06-.01,0-.02-.01-.04-.02-.02-.01-.05-.03-.07-.04-.02-.02-.05-.03-.07-.05-.02-.02-.05-.03-.07-.05-.04-.04-.09-.07-.13-.12l-1.58-1.58-2.01-2.01-3.63-3.63-2.01-2.01-5.91-5.91c-.66-.66-.66-1.73,0-2.38l5.91-5.91-3.63-3.63-6.87,6.87c-2.13,2.13-2.13,5.59,0,7.72l6.87,6.87,2.01,2.01,3.63,3.63,2.01,2.01,2.54,2.54c.2.2.41.38.63.54.07.05.15.11.22.16.08.05.15.1.23.14.17.1.34.19.51.27.07.03.14.06.21.09.08.03.17.06.25.09.08.03.17.06.25.08.51.15,1.03.22,1.55.22s1.05-.07,1.55-.22c.08-.02.17-.05.25-.08.08-.03.17-.06.25-.09.07-.03.14-.06.21-.09.26-.12.5-.25.74-.41.08-.05.15-.1.22-.16.22-.16.43-.34.63-.54l17.06-17.06c2.13-2.13,2.13-5.59,0-7.72Z"/>
  </g>
  <g>
    <path class="cls-1" d="M93.51,15.04c.43-.08.8-.14,1.1-.16.3-.02.61-.04.93-.04.33,0,.68.01,1.05.04.37.02.78.08,1.25.16l-4.3,17.85c-.25.05-.57.1-.96.15-.39.05-.82.08-1.29.08s-.92-.03-1.36-.09-.74-.1-.89-.14l-2.38-10.35-2.53,10.35c-.15.04-.43.08-.84.14s-.85.09-1.31.09-.88-.03-1.25-.08c-.37-.05-.67-.1-.92-.15l-4.22-17.82c.47-.08.92-.14,1.35-.18.43-.03.82-.05,1.15-.05.32,0,.65.01.99.04s.73.08,1.16.16l2.08,11.42c.42-1.83.83-3.75,1.25-5.74s.83-3.89,1.23-5.69c.3-.05.63-.1,1-.14.37-.04.74-.06,1.12-.06.33,0,.67.02,1.02.06.35.04.65.09.9.14l2.6,11.55,2.08-11.55Z"/>
    <path class="cls-1" d="M98.93,24.04c0-1.33.15-2.57.46-3.71.31-1.14.78-2.13,1.42-2.96.64-.83,1.46-1.49,2.45-1.96s2.17-.71,3.54-.71,2.54.24,3.52.71,1.8,1.13,2.44,1.96c.64.83,1.12,1.82,1.42,2.96.31,1.14.46,2.38.46,3.71s-.15,2.56-.46,3.69-.78,2.1-1.42,2.92-1.45,1.47-2.44,1.92c-.98.46-2.16.69-3.52.69s-2.55-.23-3.54-.69c-.99-.46-1.81-1.1-2.45-1.92s-1.12-1.8-1.42-2.92-.46-2.35-.46-3.69ZM110.01,24.04c0-3.63-1.06-5.45-3.17-5.45s-3.25,1.82-3.25,5.45c0,1.82.26,3.17.79,4.06.52.89,1.34,1.34,2.44,1.34,2.13,0,3.2-1.8,3.2-5.4Z"/>
    <path class="cls-1" d="M128.26,33.11c-.62,0-1.36-.08-2.23-.23v-7.3h-4.42v7.3c-.88.15-1.62.23-2.2.23-.62,0-1.36-.08-2.22-.23V15.04c.45-.07.86-.12,1.22-.15.37-.03.69-.05.98-.05.3,0,.64.02,1.01.05.38.03.78.08,1.21.15v6.62h4.42v-6.62c.45-.07.85-.12,1.21-.15.36-.03.69-.05.99-.05s.64.02,1.01.05c.38.03.78.08,1.21.15v17.85c-.88.15-1.62.23-2.2.23Z"/>
    <path class="cls-1" d="M133.46,15.04c.37-.07.7-.12,1-.15.3-.03.59-.05.88-.05.3,0,.61.02.94.06.33.04.6.09.84.14l5.8,9.8v-9.8c.43-.07.83-.12,1.17-.15.35-.03.67-.05.95-.05s.58.02.9.05c.32.03.65.08,1,.15l-.02,17.85c-.17.05-.41.1-.73.15-.32.05-.66.08-1.02.08-.42,0-.79-.03-1.12-.09-.33-.06-.58-.1-.73-.14l-5.82-9.75v9.75c-.73.15-1.4.23-2,.23s-1.28-.08-2.03-.23V15.04Z"/>
    <path class="cls-1" d="M156.71,33.24c-1.35,0-2.47-.18-3.36-.55-.89-.37-1.6-.9-2.11-1.59s-.88-1.53-1.09-2.51c-.21-.98-.31-2.09-.31-3.33v-10.22c.48-.07.9-.11,1.25-.14.35-.02.68-.04,1-.04.28,0,.6.01.94.04.34.02.75.07,1.24.14v9.7c0,.83.03,1.54.1,2.12.07.58.19,1.06.36,1.42.18.37.42.63.74.79.32.16.73.24,1.25.24s.94-.08,1.26-.24c.33-.16.58-.42.75-.79.18-.37.29-.84.35-1.42.06-.58.09-1.29.09-2.12v-9.7c.5-.07.92-.11,1.26-.14s.65-.04.94-.04c.3,0,.62.01.98.04.35.02.77.07,1.25.14v10.22c0,1.23-.1,2.34-.31,3.33-.21.98-.57,1.82-1.09,2.51s-1.22,1.22-2.11,1.59c-.89.37-2.01.55-3.36.55Z"/>
    <path class="cls-1" d="M166.48,15.04c.37-.07.7-.12,1-.15.3-.03.59-.05.88-.05.3,0,.61.02.94.06.33.04.6.09.84.14l5.8,9.8v-9.8c.43-.07.83-.12,1.17-.15.35-.03.67-.05.95-.05s.58.02.9.05c.32.03.65.08,1,.15l-.02,17.85c-.17.05-.41.1-.73.15-.32.05-.66.08-1.02.08-.42,0-.79-.03-1.12-.09-.33-.06-.58-.1-.73-.14l-5.82-9.75v9.75c-.73.15-1.4.23-2,.23s-1.28-.08-2.03-.23V15.04Z"/>
    <path class="cls-1" d="M192.31,23.24c.45-.07.85-.12,1.2-.15.35-.03.67-.05.98-.05.28,0,.62.02,1.02.05.4.03.79.08,1.17.15v9.1c-.98.37-1.95.61-2.91.73-.96.12-1.78.18-2.46.18-1.47,0-2.75-.23-3.85-.69-1.1-.46-2.02-1.1-2.76-1.91-.74-.82-1.3-1.79-1.66-2.92-.37-1.13-.55-2.37-.55-3.7s.19-2.57.57-3.71c.38-1.14.94-2.13,1.66-2.96.72-.83,1.62-1.48,2.69-1.95,1.07-.47,2.27-.7,3.62-.7.8,0,1.56.06,2.29.17.73.12,1.52.36,2.39.73-.03.68-.16,1.35-.38,2s-.44,1.2-.67,1.65c-.33-.12-.64-.22-.91-.3-.27-.08-.54-.15-.79-.2-.25-.05-.5-.09-.75-.11s-.52-.04-.8-.04c-1.35,0-2.39.45-3.12,1.36-.73.91-1.1,2.26-1.1,4.06s.36,3.11,1.08,3.99,1.78,1.31,3.2,1.31c.32,0,.6-.02.85-.07v-6Z"/>
    <path class="cls-1" d="M206.43,21.99c.7.28,1.33.57,1.89.86.56.29,1.04.64,1.44,1.05.4.41.71.9.92,1.47.22.58.33,1.27.33,2.09,0,.88-.15,1.68-.46,2.39s-.76,1.32-1.36,1.83c-.6.51-1.34.9-2.21,1.17s-1.88.41-3.01.41c-1.03,0-1.95-.08-2.74-.25-.79-.17-1.65-.42-2.56-.77.07-.58.18-1.2.35-1.86.17-.66.37-1.33.6-2.01,1.53.67,2.87,1,4,1,.85,0,1.51-.13,1.99-.39.48-.26.71-.7.71-1.34,0-.27-.05-.5-.15-.69-.1-.19-.23-.35-.4-.49-.17-.13-.35-.25-.56-.34-.21-.09-.42-.18-.64-.26l-1.4-.53c-.6-.22-1.15-.47-1.64-.78-.49-.3-.91-.65-1.26-1.06-.35-.41-.62-.88-.81-1.41-.19-.53-.29-1.16-.29-1.88,0-.88.15-1.67.45-2.35.3-.68.72-1.26,1.26-1.74.54-.48,1.2-.83,1.96-1.08.77-.24,1.62-.36,2.57-.36.85,0,1.67.08,2.46.25.79.17,1.64.41,2.54.73-.07.53-.19,1.12-.36,1.76-.17.64-.4,1.25-.66,1.81-.43-.18-.94-.38-1.53-.57-.58-.2-1.31-.3-2.17-.3-.27,0-.52.02-.76.08-.24.05-.46.13-.65.24-.19.11-.35.26-.46.45-.12.19-.17.43-.17.71,0,.48.16.84.47,1.08s.69.43,1.12.6l1.2.48Z"/>
    <path class="cls-1" d="M213.08,26.14c0-.57.08-1.2.23-1.9h6.7c.08.35.14.68.16.99.02.31.04.6.04.89s-.01.58-.04.9c-.03.32-.08.65-.16,1h-6.7c-.15-.7-.23-1.33-.23-1.88Z"/>
    <path class="cls-1" d="M83.78,58.24c-1.35,0-2.47-.18-3.36-.55s-1.6-.9-2.11-1.59-.88-1.53-1.09-2.51c-.21-.98-.31-2.09-.31-3.33v-10.22c.48-.07.9-.11,1.25-.14.35-.03.68-.04,1-.04.28,0,.6.01.94.04.34.03.75.07,1.24.14v9.7c0,.83.03,1.54.1,2.12.07.58.19,1.06.36,1.42.18.37.42.63.74.79.32.16.73.24,1.25.24s.94-.08,1.26-.24c.33-.16.58-.42.75-.79.18-.37.29-.84.35-1.42.06-.58.09-1.29.09-2.12v-9.7c.5-.07.92-.11,1.26-.14s.65-.04.94-.04c.3,0,.62.01.98.04.35.03.77.07,1.25.14v10.22c0,1.23-.1,2.34-.31,3.33-.21.98-.57,1.82-1.09,2.51s-1.22,1.22-2.11,1.59-2.01.55-3.36.55ZM79.08,36.94c0-.5.05-1,.15-1.5.25-.05.54-.09.88-.11.33-.02.62-.04.85-.04s.52.01.85.04c.33.03.63.06.9.11.1.5.15,1,.15,1.5s-.05,1-.15,1.5c-.27.05-.57.09-.9.11-.33.02-.62.04-.85.04s-.52-.01-.85-.04c-.33-.03-.62-.06-.88-.11-.1-.5-.15-1-.15-1.5ZM84.71,36.94c0-.5.05-1,.15-1.5.25-.05.54-.09.88-.11.33-.02.62-.04.85-.04s.52.01.85.04c.33.03.63.06.9.11.1.5.15,1,.15,1.5s-.05,1-.15,1.5c-.27.05-.57.09-.9.11-.33.02-.62.04-.85.04s-.52-.01-.85-.04c-.33-.03-.62-.06-.88-.11-.1-.5-.15-1-.15-1.5Z"/>
    <path class="cls-1" d="M106.21,52.71c0,1.1-.2,2.01-.6,2.72-.4.72-.95,1.28-1.65,1.7-.7.42-1.53.71-2.5.88-.97.17-2.02.25-3.15.25-.9,0-1.71-.03-2.42-.1-.72-.07-1.49-.15-2.33-.25v-17.88c.63-.1,1.33-.18,2.08-.25s1.62-.1,2.62-.1,1.84.08,2.66.24,1.55.42,2.16.8c.62.38,1.1.88,1.46,1.5s.54,1.41.54,2.36c0,.78-.18,1.5-.53,2.14-.35.64-.79,1.14-1.33,1.49.38.15.75.35,1.11.59.36.24.68.54.95.9.28.36.5.79.66,1.29.17.5.25,1.07.25,1.72ZM97.88,46.86h.7c.72,0,1.27-.15,1.67-.44.4-.29.6-.8.6-1.51,0-.35-.07-.64-.21-.88-.14-.23-.32-.42-.54-.55-.22-.13-.46-.23-.72-.28-.27-.05-.53-.08-.78-.08h-.36c-.14,0-.26,0-.36.03v3.7ZM97.88,50.41v4.2c.12.02.26.03.44.04s.4.01.69.01c.32,0,.64-.03.96-.1.33-.07.62-.18.89-.34s.48-.38.64-.65c.16-.27.24-.62.24-1.04,0-.8-.26-1.35-.79-1.66-.53-.31-1.2-.46-2.04-.46h-1.02Z"/>
    <path class="cls-1" d="M117.96,48.59c0,.58-.07,1.23-.22,1.95h-4.83v3.55h6.28c.15.7.22,1.33.22,1.9,0,.62-.08,1.27-.22,1.97h-10.7v-17.97h10.55c.07.37.12.71.15,1.02.03.32.05.62.05.9,0,.55-.07,1.21-.2,1.97h-6.12v2.75h4.83c.15.73.22,1.38.22,1.95Z"/>
    <path class="cls-1" d="M121.66,40.04c.82-.08,1.57-.16,2.26-.24.69-.08,1.42-.11,2.19-.11.92,0,1.83.09,2.75.26.92.18,1.73.48,2.45.91.72.43,1.3,1.02,1.75,1.77.45.75.67,1.7.67,2.85,0,.62-.07,1.17-.21,1.66s-.33.93-.55,1.31-.47.72-.75,1-.55.53-.81.72l3.9,7.7c-.4.07-.84.12-1.31.15-.48.03-.9.05-1.29.05-.33,0-.72-.02-1.16-.05-.44-.03-.83-.08-1.16-.15l-3.55-8.17.23-.12c.2-.1.42-.27.66-.5.24-.23.47-.51.67-.84s.38-.69.53-1.09.21-.82.21-1.25c0-.83-.23-1.44-.7-1.82-.47-.38-1.04-.58-1.73-.58-.17,0-.31,0-.42.03-.12.02-.19.03-.22.05v14.3c-.88.15-1.61.23-2.18.23-.62,0-1.36-.08-2.22-.23v-17.85Z"/>
    <path class="cls-1" d="M145.66,48.24c.45-.07.85-.12,1.2-.15.35-.03.67-.05.98-.05.28,0,.62.02,1.02.05.4.03.79.08,1.17.15v9.1c-.98.37-1.95.61-2.91.72-.96.12-1.78.18-2.46.18-1.47,0-2.75-.23-3.85-.69-1.1-.46-2.02-1.1-2.76-1.91-.74-.82-1.3-1.79-1.66-2.92-.37-1.13-.55-2.37-.55-3.7s.19-2.57.57-3.71c.38-1.14.94-2.13,1.66-2.96.72-.83,1.62-1.48,2.69-1.95,1.07-.46,2.27-.7,3.62-.7.8,0,1.56.06,2.29.18.73.12,1.52.36,2.39.72-.03.68-.16,1.35-.38,2s-.44,1.2-.67,1.65c-.33-.12-.64-.22-.91-.3-.27-.08-.54-.15-.79-.2-.25-.05-.5-.09-.75-.11s-.52-.04-.8-.04c-1.35,0-2.39.45-3.12,1.36-.73.91-1.1,2.26-1.1,4.06s.36,3.11,1.08,3.99,1.78,1.31,3.2,1.31c.32,0,.6-.03.85-.07v-6Z"/>
    <path class="cls-1" d="M155.73,57.91c-.38.07-.73.12-1.05.15-.32.03-.62.05-.93.05s-.65-.02-1.04-.06c-.39-.04-.83-.11-1.31-.19l5.6-17.85c.43-.05.84-.09,1.21-.12.38-.03.75-.05,1.14-.05.32,0,.66.02,1.04.05.38.04.8.08,1.29.12l5.52,17.88c-.95.15-1.78.23-2.5.23-.33,0-.67-.02-1-.05s-.69-.08-1.08-.15l-.95-3.47c-.47.13-.91.23-1.34.3s-.85.1-1.26.1c-.38,0-.77-.03-1.17-.09s-.82-.15-1.25-.26l-.92,3.42ZM159.23,44.71l-1.67,6.42c.28.08.55.15.8.2.25.05.51.07.77.07.28,0,.56-.02.84-.06.28-.04.56-.1.86-.19l-1.6-6.45Z"/>
    <path class="cls-1" d="M181.48,52.71c0,1.1-.2,2.01-.6,2.72-.4.72-.95,1.28-1.65,1.7-.7.42-1.53.71-2.5.88-.97.17-2.02.25-3.15.25-.9,0-1.71-.03-2.42-.1-.72-.07-1.49-.15-2.33-.25v-17.88c.63-.1,1.33-.18,2.08-.25s1.62-.1,2.62-.1,1.84.08,2.66.24,1.55.42,2.16.8c.62.38,1.1.88,1.46,1.5s.54,1.41.54,2.36c0,.78-.18,1.5-.53,2.14-.35.64-.79,1.14-1.33,1.49.38.15.75.35,1.11.59.36.24.68.54.95.9.28.36.5.79.66,1.29.17.5.25,1.07.25,1.72ZM173.16,46.86h.7c.72,0,1.27-.15,1.67-.44.4-.29.6-.8.6-1.51,0-.35-.07-.64-.21-.88-.14-.23-.32-.42-.54-.55-.22-.13-.46-.23-.72-.28-.27-.05-.53-.08-.78-.08h-.36c-.14,0-.26,0-.36.03v3.7ZM173.16,50.41v4.2c.12.02.26.03.44.04s.4.01.69.01c.32,0,.64-.03.96-.1.33-.07.62-.18.89-.34s.48-.38.64-.65c.16-.27.24-.62.24-1.04,0-.8-.26-1.35-.79-1.66-.53-.31-1.2-.46-2.04-.46h-1.02Z"/>
    <path class="cls-1" d="M193.23,48.59c0,.58-.07,1.23-.22,1.95h-4.83v3.55h6.28c.15.7.22,1.33.22,1.9,0,.62-.08,1.27-.22,1.97h-10.7v-17.97h10.55c.07.37.12.71.15,1.02.03.32.05.62.05.9,0,.55-.07,1.21-.2,1.97h-6.12v2.75h4.83c.15.73.22,1.38.22,1.95Z"/>
  </g>
</svg>